<?xml version="1.0" encoding="UTF-8"?>
<svg id="Capa_1" data-name="Capa 1" xmlns="http://www.w3.org/2000/svg" viewBox="0 0 335.61 381.77">
  <defs>
    <style>
      .cls-1 {
        fill: #fff;
      }
    </style>
  </defs>
  <path class="cls-1" d="M143.86,286.29c.03-26.96-21.56-48.04-47.51-48.28-25.96-.24-47.84,20.64-48.31,47.2l-.02,96.56-32.35-.03v-188.75c3.86-.92,7.16-2.18,10.11-5.15L167.85,45.14l142.2,141.82c3.05,2.85,6.24,4.1,9.95,5.03v189.73s-176.11.06-176.11.06l-.02-95.48ZM203.71,130.13c0-19.81-16.06-35.88-35.88-35.88s-35.88,16.06-35.88,35.88,16.06,35.88,35.88,35.88,35.88-16.06,35.88-35.88ZM183.83,198.02v103.83h103.83v-103.83h-103.83Z"/>
  <path class="cls-1" d="M171.47,37.5c-2.82-2.82-5-2.26-7.37.13L20.93,181.53c-4.84,4.86-11.98,5.15-16.94.7-4.49-4.03-5.77-11.92-.78-16.93L167.87,0l164.39,163.99c4.91,4.9,4.17,12.86-.57,17.19s-11.86,4.38-16.81-.55L171.47,37.5Z"/>
  <circle class="cls-1" cx="167.84" cy="130.13" r="27.97"/>
  <path class="cls-1" d="M135.92,381.72l-79.92.06-.07-95.05c-.02-22.6,17.65-40.56,39.71-40.77,22.18-.21,40.62,17.9,40.27,40.76l.02,95Z"/>
  <polygon class="cls-1" points="303.64 124.23 255.75 76.5 255.67 14.31 303.65 14.31 303.64 124.23"/>
  <g>
    <rect class="cls-1" x="191.78" y="205.89" width="40.14" height="40.26"/>
    <rect class="cls-1" x="239.7" y="205.89" width="40.16" height="40.26"/>
    <rect class="cls-1" x="191.79" y="253.8" width="40.13" height="40.27"/>
    <rect class="cls-1" x="239.7" y="253.81" width="40.16" height="40.26"/>
  </g>
</svg>